<?xml version="1.0" encoding="UTF-8"?>
<svg version="1.1" xmlns="http://www.w3.org/2000/svg" width="349" height="123">
<path d="M0 0 C115.17 0 230.34 0 349 0 C349 40.59 349 81.18 349 123 C233.83 123 118.66 123 0 123 C0 82.41 0 41.82 0 0 Z " fill="#FCFCFB" transform="translate(0,0)"/>
<path d="M0 0 C8.30412364 3.08296806 12.2924244 7.5992322 16.359375 15.28125 C18.11301545 13.00151741 19.70769731 10.7239343 21.234375 8.28125 C24.05634747 4.29728887 26.70904496 1.83136001 31.359375 0.28125 C33.62701074 0.13476918 35.89969866 0.0602874 38.171875 0.03125 C39.37457031 0.00546875 40.57726562 -0.0203125 41.81640625 -0.046875 C49.30378088 0.6465533 53.43306991 4.83239043 58.109375 10.34375 C61.47083179 15.55400803 60.89445772 22.33418775 60.359375 28.28125 C58.63664094 34.52875543 54.66883155 38.73383287 49.359375 42.28125 C43.1350076 45.32427406 36.23790707 45.06186887 29.671875 43.28125 C24.24585498 40.00516244 19.8080524 35.19391007 17.359375 29.28125 C17.359375 28.29125 17.359375 27.30125 17.359375 26.28125 C16.699375 26.28125 16.039375 26.28125 15.359375 26.28125 C15.318125 27.10625 15.276875 27.93125 15.234375 28.78125 C13.74831985 34.72547062 10.42742117 38.99906138 5.234375 42.21875 C-1.39187177 44.66758033 -7.40348677 45.17425365 -14.265625 43.28125 C-19.61739416 40.10983124 -24.41207804 35.19951387 -26.640625 29.28125 C-27.45382865 21.85113667 -28.00377147 14.13227746 -23.27734375 7.9296875 C-16.29418009 0.89652505 -9.9384169 -2.70513123 0 0 Z " fill="#313C97" transform="translate(100.640625,31.71875)"/>
<path d="M0 0 C0.825 0.680625 1.65 1.36125 2.5 2.0625 C2.5 6.71306574 1.94845127 7.20426924 -1.1875 10.375 C-1.87199219 11.09300781 -2.55648437 11.81101562 -3.26171875 12.55078125 C-5.5 14.0625 -5.5 14.0625 -7.953125 13.8125 C-8.79359375 13.565 -9.6340625 13.3175 -10.5 13.0625 C-17.15166456 12.35389463 -17.15166456 12.35389463 -23.0625 14.875 C-26.03941974 19.40509525 -25.85825914 23.83191649 -25.5 29.0625 C-24.5541919 32.91848687 -23.5888772 36.4718288 -20.5 39.0625 C-17.47211997 39.39653659 -14.53309189 39.2914126 -11.5 39.0625 C-11.5 37.4125 -11.5 35.7625 -11.5 34.0625 C-12.61375 33.959375 -13.7275 33.85625 -14.875 33.75 C-16.669375 33.4096875 -16.669375 33.4096875 -18.5 33.0625 C-21.29921583 28.86367625 -20.36558093 26.94122887 -19.5 22.0625 C-17.84605883 20.40855883 -15.89684587 20.93250317 -13.625 20.9296875 C-12.64015625 20.92839844 -11.6553125 20.92710938 -10.640625 20.92578125 C-9.60421875 20.92964844 -8.5678125 20.93351562 -7.5 20.9375 C-5.94539063 20.93169922 -5.94539063 20.93169922 -4.359375 20.92578125 C-3.37453125 20.92707031 -2.3896875 20.92835937 -1.375 20.9296875 C-0.46492188 20.93081543 0.44515625 20.93194336 1.3828125 20.93310547 C3.5 21.0625 3.5 21.0625 4.5 22.0625 C4.81913519 27.4183723 4.857249 32.77693341 4.9050293 38.14135742 C4.92644484 39.94428861 4.96034789 41.74712062 5.00756836 43.54956055 C5.28851641 54.37655864 5.47455195 64.05461771 -1.5 73.0625 C-8.26180398 78.98638402 -13.68684567 80.59564299 -22.5625 80.3515625 C-28.94662813 79.72333713 -33.71517352 77.398749 -38.5 73.0625 C-37.86934243 69.84397169 -36.71979305 67.55448931 -34.9375 64.8125 C-34.48246094 64.10609375 -34.02742187 63.3996875 -33.55859375 62.671875 C-33.03458984 61.87523438 -33.03458984 61.87523438 -32.5 61.0625 C-31.571875 61.3925 -30.64375 61.7225 -29.6875 62.0625 C-24.69095127 63.52239695 -19.6566642 63.23034802 -14.5 63.0625 C-13.51 60.0925 -12.52 57.1225 -11.5 54.0625 C-13.48 54.5575 -13.48 54.5575 -15.5 55.0625 C-22.77771108 55.76202121 -28.29592566 54.65627446 -34.125 49.9375 C-42.31949076 40.01785329 -43.17044712 30.57751283 -42.5 18.0625 C-41.38755549 9.9453225 -36.32597344 3.59208052 -30.5 -1.9375 C-20.81719512 -7.83505481 -9.21999905 -5.45013962 0 0 Z " fill="#F77732" transform="translate(249.5,19.9375)"/>
<path d="M0 0 C2.18937683 1.16854858 2.18937683 1.16854858 4 3 C4.48774719 5.59390259 4.48774719 5.59390259 4.4699707 8.74072266 C4.47435905 10.50737778 4.47435905 10.50737778 4.47883606 12.3097229 C4.46132797 13.58165497 4.44381989 14.85358704 4.42578125 16.1640625 C4.42249313 17.46701263 4.41920502 18.76996277 4.41581726 20.11239624 C4.40818006 22.86812767 4.38762597 25.62333915 4.35668945 28.37890625 C4.31703684 31.91777475 4.2990685 35.45630551 4.28938007 38.99537086 C4.2794264 42.36415699 4.2591812 45.73282497 4.23828125 49.1015625 C4.23089432 50.37754303 4.22350739 51.65352356 4.21589661 52.96817017 C4.20306137 54.13963593 4.19022614 55.31110168 4.17700195 56.51806641 C4.16715775 57.55492584 4.15731354 58.59178528 4.14717102 59.6600647 C4 62 4 62 3 63 C0.98035801 63.07244053 -1.04167124 63.08377188 -3.0625 63.0625 C-4.71958984 63.04896484 -4.71958984 63.04896484 -6.41015625 63.03515625 C-7.26480469 63.02355469 -8.11945313 63.01195312 -9 63 C-9 62.01 -9 61.02 -9 60 C-9.556875 60.474375 -10.11375 60.94875 -10.6875 61.4375 C-15.04921838 64.38460701 -19.84905878 64.44404666 -25 64 C-31.29711027 61.28572833 -35.18534382 57.54609178 -37.75 51.12109375 C-39.78892398 44.11229256 -40.31641858 36.89400355 -37 30.25 C-34.1467754 25.7503769 -30.89781165 22.23245141 -26 20 C-20.81069484 19.13381523 -16.60689673 19.37956333 -12 22 C-11.97421875 20.74703125 -11.9484375 19.4940625 -11.921875 18.203125 C-11.86558831 16.55204877 -11.8082411 14.90100845 -11.75 13.25 C-11.72873047 12.0125 -11.72873047 12.0125 -11.70703125 10.75 C-11.46077816 4.64292337 -11.46077816 4.64292337 -9.171875 1.44921875 C-5.98884054 -0.67471252 -3.73880322 -0.4673504 0 0 Z " fill="#323D97" transform="translate(201,12)"/>
<path d="M0 0 C0.83729141 -0.0033284 1.67458282 -0.0066568 2.5372467 -0.01008606 C4.31185353 -0.01515881 6.08646992 -0.01749428 7.86108398 -0.01733398 C10.58267881 -0.01951922 13.30386768 -0.03766758 16.02539062 -0.05664062 C17.74609236 -0.05957467 19.46679602 -0.06155939 21.1875 -0.0625 C22.00524399 -0.06968552 22.82298798 -0.07687103 23.66551208 -0.08427429 C29.43133421 -0.06085329 29.43133421 -0.06085329 31.66015625 2.16796875 C31.890625 4.69921875 31.890625 4.69921875 31.84765625 7.66796875 C31.84121094 8.64765625 31.83476563 9.62734375 31.828125 10.63671875 C31.66015625 13.16796875 31.66015625 13.16796875 30.66015625 15.16796875 C22.41015625 15.16796875 14.16015625 15.16796875 5.66015625 15.16796875 C5.66015625 18.13796875 5.66015625 21.10796875 5.66015625 24.16796875 C7.79097656 24.11576172 7.79097656 24.11576172 9.96484375 24.0625 C11.8216028 24.03436729 13.67837458 24.00706658 15.53515625 23.98046875 C16.47230469 23.95533203 17.40945312 23.93019531 18.375 23.90429688 C19.27089844 23.89462891 20.16679688 23.88496094 21.08984375 23.875 C21.91726074 23.85928955 22.74467773 23.8435791 23.59716797 23.82739258 C24.2779541 23.93978271 24.95874023 24.05217285 25.66015625 24.16796875 C27.65841586 27.16535816 27.93566023 27.80144383 27.91015625 31.16796875 C27.91789062 32.18890625 27.91789062 32.18890625 27.92578125 33.23046875 C27.66015625 35.16796875 27.66015625 35.16796875 25.66015625 38.16796875 C21.61781374 39.44258125 17.55483842 39.26978821 13.34765625 39.23046875 C12.09339844 39.22144531 10.83914062 39.21242187 9.546875 39.203125 C8.59425781 39.19152344 7.64164063 39.17992187 6.66015625 39.16796875 C6.67175781 39.88082031 6.68335937 40.59367187 6.6953125 41.328125 C6.83138737 55.77150087 6.83138737 55.77150087 4.03515625 59.10546875 C0.74705722 60.57646042 -1.7747369 60.48628186 -5.33984375 60.16796875 C-6.69439476 59.54554302 -8.03390013 58.88681052 -9.33984375 58.16796875 C-9.36297258 50.75336933 -9.3807616 43.33877764 -9.39165592 35.92414951 C-9.39688357 32.48156527 -9.40397906 29.03900563 -9.4152832 25.59643555 C-9.4281861 21.64241832 -9.43307293 17.68841119 -9.4375 13.734375 C-9.44266129 12.49273087 -9.44782257 11.25108673 -9.45314026 9.97181702 C-9.45321579 8.83070969 -9.45329132 7.68960236 -9.45336914 6.51391602 C-9.45558975 5.50353775 -9.45781036 4.49315948 -9.46009827 3.4521637 C-9.18869712 -1.70301172 -4.02321927 0.00546146 0 0 Z " fill="#313A98" transform="translate(44.33984375,15.83203125)"/>
<path d="M0 0 C5.86265235 2.06081113 9.8187556 5.06062929 13.140625 10.34375 C15.49253511 17.39948032 14.77490426 25.55146629 12.12109375 32.44140625 C9.21659114 38.07683561 4.00438674 41.38916275 -1.859375 43.34375 C-8.98893692 44.04634011 -15.00380851 43.73862813 -20.859375 39.34375 C-25.03630443 35.33426986 -28.5656848 31.26158119 -29.16015625 25.35546875 C-29.19510219 15.44246908 -27.78001607 9.59394541 -20.859375 2.34375 C-14.59568737 -2.17942752 -7.3179979 -1.6795405 0 0 Z " fill="#F77731" transform="translate(284.859375,32.65625)"/>
<path d="M0 0 C6.75 1.75 6.75 1.75 9 4 C9.27922749 6.93188861 9.47143881 9.15390647 9 12 C6.90630772 14.48141307 5.61022146 14.89581585 2.4375 15.4375 C0 15 0 15 -1.8125 13.5 C-3.59376995 9.749958 -3.39487671 7.14620548 -3 3 C-1.5 1 -1.5 1 0 0 Z " fill="#FEF2EC" transform="translate(275,46)"/>
<path d="M0 0 C3.125 0.3125 3.125 0.3125 5.5625 1.25 C7.84399959 4.26157945 7.21287035 6.62054053 6.77734375 10.25390625 C6.125 12.3125 6.125 12.3125 3.125 14.3125 C0.625 14.6875 0.625 14.6875 -1.875 14.3125 C-4.0519508 12.51088554 -4.77062676 11.13770089 -5.125 8.3359375 C-5.1875 6.1875 -5.1875 6.1875 -4.875 2.3125 C-2.875 0.3125 -2.875 0.3125 0 0 Z " fill="#ECF4F1" transform="translate(138.875,46.6875)"/>
<path d="M0 0 C2 2 2 2 2.375 5.9375 C2.29486433 8.88115036 2.26281734 9.68851278 0.3125 12 C-2.43794976 13.18938368 -4.03974275 13.53132822 -7 13 C-9.77334669 10.60918389 -9.98943126 9.100403 -10.375 5.4375 C-10 2 -10 2 -8.9375 0 C-5.80557344 -1.61647822 -3.32814714 -0.78665296 0 0 Z " fill="#EFF6F2" transform="translate(99,48)"/>
<path d="M0 0 C2.41486943 2.41486943 2.2961925 3.12707789 2.3125 6.4375 C2.32925781 7.21996094 2.34601563 8.00242187 2.36328125 8.80859375 C1.91721947 11.49935355 1.17517195 12.39587558 -1 14 C-3.75789551 13.86210522 -5.47120861 13.32821535 -7.8125 11.875 C-9.70271646 8.89044769 -9.36799239 6.43459566 -9 3 C-6.8388936 -0.72190547 -4.01418597 -0.42704106 0 0 Z " fill="#ECF3F0" transform="translate(187,47)"/>
<path d="M0 0 C0.5775 0.37125 1.155 0.7425 1.75 1.125 C1.75 1.785 1.75 2.445 1.75 3.125 C1.09 3.125 0.43 3.125 -0.25 3.125 C0.41 5.765 1.07 8.405 1.75 11.125 C0.43 10.795 -0.89 10.465 -2.25 10.125 C-2.58 8.805 -2.91 7.485 -3.25 6.125 C-3.91 8.105 -4.57 10.085 -5.25 12.125 C-6.24 11.135 -7.23 10.145 -8.25 9.125 C-8.58 9.785 -8.91 10.445 -9.25 11.125 C-11.56 11.125 -13.87 11.125 -16.25 11.125 C-16.25 10.135 -16.25 9.145 -16.25 8.125 C-15.26 8.455 -14.27 8.785 -13.25 9.125 C-12.92 8.135 -12.59 7.145 -12.25 6.125 C-13.24 5.795 -14.23 5.465 -15.25 5.125 C-14.59 4.795 -13.93 4.465 -13.25 4.125 C-14.24 3.465 -15.23 2.805 -16.25 2.125 C-13.94 2.125 -11.63 2.125 -9.25 2.125 C-8.92 2.785 -8.59 3.445 -8.25 4.125 C-7.59 3.135 -6.93 2.145 -6.25 1.125 C-3.72473273 -0.64268709 -2.93410037 -1.14103903 0 0 Z " fill="#9E9DA1" transform="translate(107.25,87.875)"/>
<path d="M0 0 C0.33 0 0.66 0 1 0 C1.29552222 4.05089205 1.5454579 8.10202991 1.75683594 12.15820312 C1.83443929 13.53197492 1.92359992 14.90515211 2.02539062 16.27734375 C2.74685619 26.14699271 1.98156342 33.84229301 -4 42 C-7.13545334 44.76526639 -9.91456205 46.92488475 -14 48 C-14.99 47.34 -15.98 46.68 -17 46 C-15.80375 45.484375 -14.6075 44.96875 -13.375 44.4375 C-7.94497324 41.71285891 -4.17382887 38.00548191 -1.94921875 32.30957031 C-0.93586018 28.77636848 -0.68337031 25.74028153 -0.5859375 22.0703125 C-0.54726562 20.78125 -0.50859375 19.4921875 -0.46875 18.1640625 C-0.43730242 16.81771293 -0.40605489 15.47135868 -0.375 14.125 C-0.33676959 12.75518486 -0.29771499 11.38539245 -0.2578125 10.015625 C-0.16377285 6.67721737 -0.07811943 3.33881186 0 0 Z " fill="#F68D53" transform="translate(252,51)"/>
<path d="M0 0 C0.928125 1.175625 0.928125 1.175625 1.875 2.375 C5.20601423 6.48978228 6.66341087 7.27763212 11.97265625 7.86328125 C14.12048272 8.05394719 14.12048272 8.05394719 16.75 7.8125 C19.91387906 8.07615659 20.89169625 9.74553234 23 12 C13.00928623 12.44958212 5.73307464 12.00809889 -2 5 C-1.125 1.125 -1.125 1.125 0 0 Z " fill="#F68B50" transform="translate(213,88)"/>
<path d="M0 0 C1.485 0.99 1.485 0.99 3 2 C3.33 1.34 3.66 0.68 4 0 C7.875 0.875 7.875 0.875 9 2 C9.33 1.34 9.66 0.68 10 0 C10.99 0 11.98 0 13 0 C12.01 2.97 11.02 5.94 10 9 C9.01 8.01 8.02 7.02 7 6 C7 5.34 7 4.68 7 4 C6.34 4 5.68 4 5 4 C4.67 5.65 4.34 7.3 4 9 C3.34 9 2.68 9 2 9 C0.50178941 5.62902617 0 3.79557881 0 0 Z " fill="#57525C" transform="translate(76,90)"/>
<path d="M0 0 C0.99 0.33 1.98 0.66 3 1 C3.33 1.99 3.66 2.98 4 4 C4.66 2.68 5.32 1.36 6 0 C6.66 0 7.32 0 8 0 C7.38461538 5.53846154 7.38461538 5.53846154 5.4375 7.875 C4.7259375 8.431875 4.7259375 8.431875 4 9 C3.01 7.68 2.02 6.36 1 5 C0.34 6.32 -0.32 7.64 -1 9 C-1.66 9 -2.32 9 -3 9 C-4.42944945 6.64561267 -5.08661261 5.51967567 -4.625 2.75 C-4.41875 2.1725 -4.2125 1.595 -4 1 C-3.34 1.66 -2.68 2.32 -2 3 C-1.34 2.01 -0.68 1.02 0 0 Z " fill="#5A5860" transform="translate(40,90)"/>
<path d="M0 0 C2.375 -0.125 2.375 -0.125 5 0 C7 2 7 2 7 6 C5.02 6 3.04 6 1 6 C1 6.66 1 7.32 1 8 C2.65 8 4.3 8 6 8 C5.67 8.66 5.34 9.32 5 10 C3.33388095 10.042721 1.66617115 10.04063832 0 10 C-1 9 -1 9 -1.125 5.5625 C-1 2 -1 2 0 0 Z " fill="#78777D" transform="translate(158,89)"/>
<path d="M0 0 C0.66 0 1.32 0 2 0 C2 1.32 2 2.64 2 4 C3.175625 3.9071875 3.175625 3.9071875 4.375 3.8125 C5.674375 3.9053125 5.674375 3.9053125 7 4 C9 7 9 7 8.625 10.1875 C8.41875 11.115625 8.2125 12.04375 8 13 C7.34 12.34 6.68 11.68 6 11 C6 9.68 6 8.36 6 7 C4.68 7 3.36 7 2 7 C2 9.31 2 11.62 2 14 C1.34 14 0.68 14 0 14 C0 9.38 0 4.76 0 0 Z " fill="#706D75" transform="translate(50,85)"/>
<path d="M0 0 C1.32 0.33 2.64 0.66 4 1 C4 13.21 4 25.42 4 38 C3.67 38 3.34 38 3 38 C2.98018066 37.18845459 2.96036133 36.37690918 2.93994141 35.54077148 C2.84428163 31.83937251 2.73476786 28.13850635 2.625 24.4375 C2.5940625 23.16068359 2.563125 21.88386719 2.53125 20.56835938 C2.33757215 14.35452831 2.02929609 8.88165899 0 3 C0 2.01 0 1.02 0 0 Z " fill="#F57F3D" transform="translate(250,41)"/>
<path d="M0 0 C2.33294775 -0.04241723 4.66702567 -0.04092937 7 0 C8 1 8 1 8.09765625 2.84765625 C8.04882812 5.92382812 8.04882812 5.92382812 8 9 C6 7 6 7 5.875 4.375 C5.91625 3.59125 5.9575 2.8075 6 2 C5.01 2 4.02 2 3 2 C2.34 4.64 1.68 7.28 1 10 C0.67 9.34 0.34 8.68 0 8 C-1.32 8.33 -2.64 8.66 -4 9 C-4 6.69 -4 4.38 -4 2 C-3.34 2.66 -2.68 3.32 -2 4 C-1.34 2.68 -0.68 1.36 0 0 Z " fill="#A0A0A4" transform="translate(146,89)"/>
<path d="M0 0 C2.64 0.33 5.28 0.66 8 1 C8 3.97 8 6.94 8 10 C5.8480563 6.77208445 5.79913557 5.71599191 6 2 C5.01 2 4.02 2 3 2 C2.67 4.31 2.34 6.62 2 9 C0.35 9 -1.3 9 -3 9 C-3 6.69 -3 4.38 -3 2 C-2.34 2.66 -1.68 3.32 -1 4 C-0.67 2.68 -0.34 1.36 0 0 Z " fill="#5B575E" transform="translate(121,89)"/>
<path d="M0 0 C0.99 0 1.98 0 3 0 C3 1.65 3 3.3 3 5 C3.66 5 4.32 5 5 5 C5.33 3.68 5.66 2.36 6 1 C6.66 1 7.32 1 8 1 C7.39254603 5.85963179 5.27241033 9.7405518 3 14 C2.01 13.67 1.02 13.34 0 13 C0.33 12.67 0.66 12.34 1 12 C0.90997602 9.97591245 0.75358962 7.95455713 0.5625 5.9375 C0.46066406 4.83277344 0.35882813 3.72804688 0.25390625 2.58984375 C0.17011719 1.73519531 0.08632813 0.88054687 0 0 Z " fill="#56575F" transform="translate(60,89)"/>
<path d="M0 0 C2.31 0 4.62 0 7 0 C7 2.97 7 5.94 7 9 C4.69 9 2.38 9 0 9 C0 8.01 0 7.02 0 6 C0.99 6.33 1.98 6.66 3 7 C3.33 6.01 3.66 5.02 4 4 C3.01 3.67 2.02 3.34 1 3 C1.66 2.67 2.32 2.34 3 2 C2.01 1.34 1.02 0.68 0 0 Z " fill="#57555F" transform="translate(91,90)"/>
<path d="M0 0 C1.32 0.66 2.64 1.32 4 2 C4 2.66 4 3.32 4 4 C3.34 4 2.68 4 2 4 C2.66 6.64 3.32 9.28 4 12 C2.68 11.67 1.36 11.34 0 11 C-0.19406478 9.35492782 -0.38007935 7.70890406 -0.5625 6.0625 C-0.66691406 5.14597656 -0.77132812 4.22945313 -0.87890625 3.28515625 C-0.91886719 2.53105469 -0.95882812 1.77695313 -1 1 C-0.67 0.67 -0.34 0.34 0 0 Z " fill="#57555C" transform="translate(105,87)"/>
<path d="M0 0 C2.97 0.495 2.97 0.495 6 1 C6 3.62113708 5.68707555 5.50935112 5 8 C4.67 7.34 4.34 6.68 4 6 C3.34 6 2.68 6 2 6 C1.67 6.66 1.34 7.32 1 8 C-1 5 -1 5 -0.625 2.3125 C-0.41875 1.549375 -0.2125 0.78625 0 0 Z " fill="#C5C4C7" transform="translate(89,90)"/>
<path d="M0 0 C1.485 0.99 1.485 0.99 3 2 C3.66 1.34 4.32 0.68 5 0 C5.66 1.32 6.32 2.64 7 4 C6.34 4 5.68 4 5 4 C4.67 5.65 4.34 7.3 4 9 C3.34 9 2.68 9 2 9 C0.50178941 5.62902617 0 3.79557881 0 0 Z " fill="#66626A" transform="translate(76,90)"/>
<path d="M0 0 C0.99 1.32 1.98 2.64 3 4 C2.01 4.495 2.01 4.495 1 5 C1 5.66 1 6.32 1 7 C2.65 7 4.3 7 6 7 C5.67 7.66 5.34 8.32 5 9 C3.33388095 9.042721 1.66617115 9.04063832 0 9 C-1 8 -1 8 -1.125 4.5 C-1 1 -1 1 0 0 Z " fill="#47454E" transform="translate(158,90)"/>
<path d="M0 0 C0 2.64 0 5.28 0 8 C-2 6 -2 6 -2.125 3.375 C-2.08375 2.59125 -2.0425 1.8075 -2 1 C-2.99 1 -3.98 1 -5 1 C-5.66 2.32 -6.32 3.64 -7 5 C-7 3.35 -7 1.7 -7 0 C-3.86650268 -1.04449911 -3.01031744 -0.93423645 0 0 Z " fill="#55535B" transform="translate(154,90)"/>
<path d="M0 0 C1.65 0 3.3 0 5 0 C3.68 0.33 2.36 0.66 1 1 C1 3.31 1 5.62 1 8 C-0.32 8.33 -1.64 8.66 -3 9 C-3 6.69 -3 4.38 -3 2 C-2.34 2.66 -1.68 3.32 -1 4 C-0.67 2.68 -0.34 1.36 0 0 Z " fill="#9A989C" transform="translate(121,89)"/>
<path d="M0 0 C0.33 0 0.66 0 1 0 C1.66 2.64 2.32 5.28 3 8 C1.68 7.67 0.36 7.34 -1 7 C-0.67 4.69 -0.34 2.38 0 0 Z " fill="#78767C" transform="translate(106,91)"/>
<path d="M0 0 C0.99 0 1.98 0 3 0 C3 1.65 3 3.3 3 5 C3.66 5.33 4.32 5.66 5 6 C3.68 6 2.36 6 1 6 C0.67 4.02 0.34 2.04 0 0 Z " fill="#76767C" transform="translate(60,89)"/>
</svg>
